:SAMPLES-PER-SECOND 30
:FULLY-SPECIFIED
:DEGREES
29
root  23.61333351 39.33311222 19.39104486 -1.306349993 -1.71085 -7.565770149
lowerback  7.975659847 2.824160099 5.422090054
upperback  0.5437430143 4.392069817 3.637609959
thorax  -3.787169933 2.114870071 0.2574490011
lowerneck  -16.32080078 -6.301479816 -15.50529957
upperneck  26.09810066 -7.014989853 8.773349762
head  12.21619987 -3.616009951 4.84265995
lclavicle  0 -5.34481991e-014 2.981770104e-014
lhumerus  -51.12379837 14.8281002 79.49649811
lradius  -3.007137653e-031 -1.850936837e-031 31.61289978
lwrist  -3.531125038e-031 -0 0.1271580011
lhand  -1.429649799e-030 -8.896530151 42.5605011
lfingers  90 7.125020027 -90
lthumb  98.43466507 25.5664356 71.03700474
rclavicle  0 -5.34481991e-014 2.981770104e-014
rhumerus  -22.92770004 -4.041800022 -80.01159668
rradius  2.895963668e-031 2.020455016e-031 34.90269852
rwrist  7.062250077e-031 -3.531125038e-031 0.9911270142
rhand  -0 -17.77370071 13.81989956
rfingers  -90 -7.125020027 -90
rthumb  -85.32023976 -28.66300558 -80.31508188
rfemur  18.27750015 3.967989922 32.39279938
rtibia  -0 0 11.1171999
rfoot  -5.646427137e-032 -12.27299976 -1.345579982
rtoes  4.595199505 19.48601936 -103.5469329
lfemur  -26.86100006 3.150140047 -11.45639992
ltibia  -0 0 22.87680054
lfoot  4.462753133e-032 -8.48499012 -2.321439981
ltoes  -4.096886067 -19.59273159 -102.0570796
30
root  23.66844388 39.29066696 19.78997809 -1.431959987 -1.554759979 -7.318379879
lowerback  8.374919891 2.852030039 5.240960121
upperback  0.1958879977 4.463630199 3.526959896
thorax  -4.377240181 2.134649992 0.2025350034
lowerneck  -15.64560032 -6.302529812 -15.59060001
upperneck  26.12220001 -7.142990112 8.895870209
head  12.11610031 -3.68385005 4.89387989
lclavicle  0 -5.34481991e-014 2.981770104e-014
lhumerus  -51.75479889 14.8494997 79.08599854
lradius  -3.018512903e-031 -1.832327452e-031 31.25900078
lwrist  -7.062250077e-031 3.531125038e-031 -0.115056999
lhand  -1.431320295e-030 -9.314009666 40.34899902
lfingers  90 7.125020027 -90
lthumb  97.48983106 23.55827508 71.79180858
rclavicle  0 -5.34481991e-014 2.981770104e-014
rhumerus  -23.80380058 -4.029940128 -80.00250244
rradius  2.881388771e-031 2.041186613e-031 35.31389999
rwrist  7.062250077e-031 -3.531125038e-031 0.6614999771
rhand  -0 -17.10860062 14.13519955
rfingers  -90 -7.125020027 -90
rthumb  -84.90029932 -28.94543065 -79.5523563
rfemur  18.44339943 4.150050163 32.15269852
rtibia  -0 0 12.19460011
rfoot  -4.514704543e-032 -12.13000011 -1.356729984
rtoes  5.134893251 19.35572641 -105.1699514
lfemur  -26.52689934 2.954360008 -11.96529961
ltibia  -0 0 23.44479942
lfoot  4.456453637e-032 -7.923649788 -1.925430059
ltoes  -3.882096554 -19.63476833 -101.4172172
31
root  23.71555539 39.24488758 20.1955555 -1.624449968 -1.533290029 -7.066840172
lowerback  8.368370056 2.914299965 4.992889881
upperback  0.3871330023 4.50785017 3.477109909
thorax  -4.186470032 2.167659998 0.2885890007
lowerneck  -15.89439964 -6.348189831 -15.73089981
upperneck  26.1359005 -7.199429989 9.140709877
head  12.19680023 -3.688019991 5.001989841
lclavicle  0 -5.34481991e-014 2.981770104e-014
lhumerus  -51.29240036 15.3987999 78.72160339
lradius  -3.047727949e-031 -1.783311073e-031 30.33309937
lwrist  -7.062250077e-031 -3.531125038e-031 -0.5620920062
lhand  -0 -12.80949974 32.89619827
lfingers  90 7.125020027 -90
lthumb  94.12984119 16.97245104 76.10674496
rclavicle  0 -5.34481991e-014 2.981770104e-014
rhumerus  -23.75919914 -4.051959991 -79.98999786
rradius  2.871655437e-031 2.054857437e-031 35.58620071
rwrist  7.062250077e-031 -3.531125038e-031 0.6403759718
rhand  -0 -17.01650047 14.39379978
rfingers  -90 -7.125020027 -90
rthumb  -84.7963296 -29.19544891 -79.42448712
rfemur  18.78960037 4.415800095 31.95509911
rtibia  -0 0 13.17430019
rfoot  -5.637975131e-032 -11.87170029 -1.451480031
rtoes  5.363396856 19.29586589 -105.8604137
lfemur  -26.03030014 2.768079996 -12.41479969
ltibia  -0 0 24.12949944
lfoot  4.452567959e-032 -7.555920124 -1.324669957
ltoes  -4.207225108 -19.57021394 -102.3863047
32
root  23.74066631 39.20888826 20.6115993 -1.981179953 -1.781949997 -7.285590172
lowerback  8.498259544 3.014780045 5.047120094
upperback  0.6669250131 4.646019936 3.644380093
thorax  -3.97303009 2.243959904 0.4175580144
lowerneck  -16.35580063 -6.377329826 -15.78639984
upperneck  26.27899933 -7.145100117 9.110280037
head  12.34150028 -3.664220095 5.007209778
lclavicle  0 -5.34481991e-014 2.981770104e-014
lhumerus  -50.875 16.01490021 78.46859741
lradius  -3.067982127e-031 -1.74823617e-031 29.67589951
lwrist  -7.062250077e-031 -3.531125038e-031 -0.9155240059
lhand  -1.451243591e-030 -13.27760029 34.1753006
lfingers  90 7.125020027 -90
lthumb  94.31201622 18.27633222 76.48056194
rclavicle  0 -5.34481991e-014 2.981770104e-014
rhumerus  -23.56889915 -3.891880035 -79.94339752
rradius  2.862828111e-031 2.067137935e-031 35.83160019
rwrist  3.531125038e-031 -0 0.4342040122
rhand  -7.411900274e-031 -17.66900063 15.72830009
rfingers  -90 -7.125020027 -90
rthumb  -84.88726175 -30.53887497 -80.01356633
rfemur  19.28639984 4.903969765 32.41139984
rtibia  -0 0 14.19960022
rfoot  -6.755406438e-032 -11.45440006 -1.754770041
rtoes  5.743749417 19.18992096 -107.0144533
lfemur  -25.37459946 2.819760084 -12.2421999
ltibia  -0 0 24.88489914
lfoot  4.445931359e-032 -6.881169796 -1.030130029
ltoes  -4.900888863 -19.41412009 -104.4649419
33
root  23.82066682 39.21844302 21.02286722 -2.227699995 -1.810690045 -7.244550228
lowerback  8.6668396 3.025079966 5.187650204
upperback  0.7159600258 4.681570053 3.617880106
thorax  -4.001790047 2.258290052 0.3004289865
lowerneck  -16.50869942 -6.399509907 -15.65979958
upperneck  26.35420036 -7.120530128 8.86882019
head  12.38399982 -3.667299986 4.89428997
lclavicle  0 -5.34481991e-014 2.981770104e-014
lhumerus  -50.75260162 16.70479965 77.93520355
lradius  -3.089660528e-031 -1.709632082e-031 28.95750046
lwrist  -7.062250077e-031 -0 -1.632650018
lhand  -7.374487048e-031 -16.73240089 23.19219971
lfingers  90 7.125020027 -90
lthumb  91.32090189 7.84871251 80.41585154
rclavicle  0 -5.34481991e-014 2.981770104e-014
rhumerus  -23.74500084 -3.771189928 -79.95089722
rradius  2.854365617e-031 2.078807581e-031 36.06549835
rwrist  3.531125038e-031 -3.531125038e-031 0.2824180126
rhand  -0 -17.81999969 13.69449997
rfingers  -90 -7.125020027 -90
rthumb  -85.36880616 -28.54123239 -80.37741206
rfemur  19.46319962 4.760529995 32.18939972
rtibia  -0 0 15.41940022
rfoot  -5.619128563e-032 -10.91989994 -1.42098999
rtoes  6.262610069 19.03244924 -108.5991414
lfemur  -24.96030045 2.808799982 -12.50269985
ltibia  -0 0 25.58239937
lfoot  5.542637433e-032 -5.471600056 -1.304630041
ltoes  -5.333027767 -19.30398435 -105.768529
